<?xml version="1.0" encoding="utf-8" standalone="no"?>
<!DOCTYPE svg PUBLIC "-//W3C//DTD SVG 1.1//EN"
  "http://www.w3.org/Graphics/SVG/1.1/DTD/svg11.dtd">
<svg xmlns:xlink="http://www.w3.org/1999/xlink" width="1080pt" height="1008pt" viewBox="0 0 1080 1008" xmlns="http://www.w3.org/2000/svg" version="1.1">
 <metadata>
  <rdf:RDF xmlns:dc="http://purl.org/dc/elements/1.1/" xmlns:cc="http://creativecommons.org/ns#" xmlns:rdf="http://www.w3.org/1999/02/22-rdf-syntax-ns#">
   <cc:Work>
    <dc:type rdf:resource="http://purl.org/dc/dcmitype/StillImage"/>
    <dc:date>2024-06-04T12:25:40.369229</dc:date>
    <dc:format>image/svg+xml</dc:format>
    <dc:creator>
     <cc:Agent>
      <dc:title>Matplotlib v3.8.0, https://matplotlib.org/</dc:title>
     </cc:Agent>
    </dc:creator>
   </cc:Work>
  </rdf:RDF>
 </metadata>
 <defs>
  <style type="text/css">*{stroke-linejoin: round; stroke-linecap: butt}</style>
 </defs>
 <g id="figure_1">
  <g id="patch_1">
   <path d="M 0 1008 
L 1080 1008 
L 1080 0 
L 0 0 
z
" style="fill: #ffffff"/>
  </g>
  <g id="axes_1">
   <g id="patch_2">
    <path d="M 49.5 476.565666 
L 530.386875 476.565666 
L 530.386875 54.29625 
L 49.5 54.29625 
z
" style="fill: #ffffff"/>
   </g>
   <g id="matplotlib.axis_1">
    <g id="xtick_1">
     <g id="line2d_1">
      <defs>
       <path id="m4f37f5443c" d="M 0 0 
L 0 6 
" style="stroke: #262626; stroke-width: 1.25"/>
      </defs>
      <g>
       <use xlink:href="#m4f37f5443c" x="169.721719" y="476.565666" style="fill: #262626; stroke: #262626; stroke-width: 1.25"/>
      </g>
     </g>
     <g id="text_1">
      <!-- 0 -->
      <g style="fill: #262626" transform="translate(164.493022 494.14705) rotate(-30) scale(0.09 -0.09)">
       <defs>
        <path id="ArialMT-30" d="M 266 2259 
Q 266 3072 433 3567 
Q 600 4063 929 4331 
Q 1259 4600 1759 4600 
Q 2128 4600 2406 4451 
Q 2684 4303 2865 4023 
Q 3047 3744 3150 3342 
Q 3253 2941 3253 2259 
Q 3253 1453 3087 958 
Q 2922 463 2592 192 
Q 2263 -78 1759 -78 
Q 1097 -78 719 397 
Q 266 969 266 2259 
z
M 844 2259 
Q 844 1131 1108 757 
Q 1372 384 1759 384 
Q 2147 384 2411 759 
Q 2675 1134 2675 2259 
Q 2675 3391 2411 3762 
Q 2147 4134 1753 4134 
Q 1366 4134 1134 3806 
Q 844 3388 844 2259 
z
" transform="scale(0.015625)"/>
       </defs>
       <use xlink:href="#ArialMT-30"/>
      </g>
     </g>
    </g>
    <g id="xtick_2">
     <g id="line2d_2">
      <g>
       <use xlink:href="#m4f37f5443c" x="410.165156" y="476.565666" style="fill: #262626; stroke: #262626; stroke-width: 1.25"/>
      </g>
     </g>
     <g id="text_2">
      <!-- 1 -->
      <g style="fill: #262626" transform="translate(404.936459 494.14705) rotate(-30) scale(0.09 -0.09)">
       <defs>
        <path id="ArialMT-31" d="M 2384 0 
L 1822 0 
L 1822 3584 
Q 1619 3391 1289 3197 
Q 959 3003 697 2906 
L 697 3450 
Q 1169 3672 1522 3987 
Q 1875 4303 2022 4600 
L 2384 4600 
L 2384 0 
z
" transform="scale(0.015625)"/>
       </defs>
       <use xlink:href="#ArialMT-31"/>
      </g>
     </g>
    </g>
    <g id="text_3">
     <!-- stroke -->
     <g style="fill: #262626" transform="translate(273.605625 508.285528) scale(0.12 -0.12)">
      <defs>
       <path id="ArialMT-73" d="M 197 991 
L 753 1078 
Q 800 744 1014 566 
Q 1228 388 1613 388 
Q 2000 388 2187 545 
Q 2375 703 2375 916 
Q 2375 1106 2209 1216 
Q 2094 1291 1634 1406 
Q 1016 1563 777 1677 
Q 538 1791 414 1992 
Q 291 2194 291 2438 
Q 291 2659 392 2848 
Q 494 3038 669 3163 
Q 800 3259 1026 3326 
Q 1253 3394 1513 3394 
Q 1903 3394 2198 3281 
Q 2494 3169 2634 2976 
Q 2775 2784 2828 2463 
L 2278 2388 
Q 2241 2644 2061 2787 
Q 1881 2931 1553 2931 
Q 1166 2931 1000 2803 
Q 834 2675 834 2503 
Q 834 2394 903 2306 
Q 972 2216 1119 2156 
Q 1203 2125 1616 2013 
Q 2213 1853 2448 1751 
Q 2684 1650 2818 1456 
Q 2953 1263 2953 975 
Q 2953 694 2789 445 
Q 2625 197 2315 61 
Q 2006 -75 1616 -75 
Q 969 -75 630 194 
Q 291 463 197 991 
z
" transform="scale(0.015625)"/>
       <path id="ArialMT-74" d="M 1650 503 
L 1731 6 
Q 1494 -44 1306 -44 
Q 1000 -44 831 53 
Q 663 150 594 308 
Q 525 466 525 972 
L 525 2881 
L 113 2881 
L 113 3319 
L 525 3319 
L 525 4141 
L 1084 4478 
L 1084 3319 
L 1650 3319 
L 1650 2881 
L 1084 2881 
L 1084 941 
Q 1084 700 1114 631 
Q 1144 563 1211 522 
Q 1278 481 1403 481 
Q 1497 481 1650 503 
z
" transform="scale(0.015625)"/>
       <path id="ArialMT-72" d="M 416 0 
L 416 3319 
L 922 3319 
L 922 2816 
Q 1116 3169 1280 3281 
Q 1444 3394 1641 3394 
Q 1925 3394 2219 3213 
L 2025 2691 
Q 1819 2813 1613 2813 
Q 1428 2813 1281 2702 
Q 1134 2591 1072 2394 
Q 978 2094 978 1738 
L 978 0 
L 416 0 
z
" transform="scale(0.015625)"/>
       <path id="ArialMT-6f" d="M 213 1659 
Q 213 2581 725 3025 
Q 1153 3394 1769 3394 
Q 2453 3394 2887 2945 
Q 3322 2497 3322 1706 
Q 3322 1066 3130 698 
Q 2938 331 2570 128 
Q 2203 -75 1769 -75 
Q 1072 -75 642 372 
Q 213 819 213 1659 
z
M 791 1659 
Q 791 1022 1069 705 
Q 1347 388 1769 388 
Q 2188 388 2466 706 
Q 2744 1025 2744 1678 
Q 2744 2294 2464 2611 
Q 2184 2928 1769 2928 
Q 1347 2928 1069 2612 
Q 791 2297 791 1659 
z
" transform="scale(0.015625)"/>
       <path id="ArialMT-6b" d="M 425 0 
L 425 4581 
L 988 4581 
L 988 1969 
L 2319 3319 
L 3047 3319 
L 1778 2088 
L 3175 0 
L 2481 0 
L 1384 1697 
L 988 1316 
L 988 0 
L 425 0 
z
" transform="scale(0.015625)"/>
       <path id="ArialMT-65" d="M 2694 1069 
L 3275 997 
Q 3138 488 2766 206 
Q 2394 -75 1816 -75 
Q 1088 -75 661 373 
Q 234 822 234 1631 
Q 234 2469 665 2931 
Q 1097 3394 1784 3394 
Q 2450 3394 2872 2941 
Q 3294 2488 3294 1666 
Q 3294 1616 3291 1516 
L 816 1516 
Q 847 969 1125 678 
Q 1403 388 1819 388 
Q 2128 388 2347 550 
Q 2566 713 2694 1069 
z
M 847 1978 
L 2700 1978 
Q 2663 2397 2488 2606 
Q 2219 2931 1791 2931 
Q 1403 2931 1139 2672 
Q 875 2413 847 1978 
z
" transform="scale(0.015625)"/>
      </defs>
      <use xlink:href="#ArialMT-73"/>
      <use xlink:href="#ArialMT-74" x="50"/>
      <use xlink:href="#ArialMT-72" x="77.783203"/>
      <use xlink:href="#ArialMT-6f" x="111.083984"/>
      <use xlink:href="#ArialMT-6b" x="166.699219"/>
      <use xlink:href="#ArialMT-65" x="216.699219"/>
     </g>
    </g>
   </g>
   <g id="matplotlib.axis_2">
    <g id="ytick_1">
     <g id="line2d_3">
      <defs>
       <path id="m511c90c79d" d="M 0 0 
L -6 0 
" style="stroke: #262626; stroke-width: 1.25"/>
      </defs>
      <g>
       <use xlink:href="#m511c90c79d" x="49.5" y="457.746485" style="fill: #262626; stroke: #262626; stroke-width: 1.25"/>
      </g>
     </g>
     <g id="text_4">
      <!-- 0 -->
      <g style="fill: #262626" transform="translate(33.882969 461.683282) scale(0.11 -0.11)">
       <use xlink:href="#ArialMT-30"/>
      </g>
     </g>
    </g>
    <g id="ytick_2">
     <g id="line2d_4">
      <g>
       <use xlink:href="#m511c90c79d" x="49.5" y="364.025468" style="fill: #262626; stroke: #262626; stroke-width: 1.25"/>
      </g>
     </g>
     <g id="text_5">
      <!-- 20 -->
      <g style="fill: #262626" transform="translate(27.765938 367.962265) scale(0.11 -0.11)">
       <defs>
        <path id="ArialMT-32" d="M 3222 541 
L 3222 0 
L 194 0 
Q 188 203 259 391 
Q 375 700 629 1000 
Q 884 1300 1366 1694 
Q 2113 2306 2375 2664 
Q 2638 3022 2638 3341 
Q 2638 3675 2398 3904 
Q 2159 4134 1775 4134 
Q 1369 4134 1125 3890 
Q 881 3647 878 3216 
L 300 3275 
Q 359 3922 746 4261 
Q 1134 4600 1788 4600 
Q 2447 4600 2831 4234 
Q 3216 3869 3216 3328 
Q 3216 3053 3103 2787 
Q 2991 2522 2730 2228 
Q 2469 1934 1863 1422 
Q 1356 997 1212 845 
Q 1069 694 975 541 
L 3222 541 
z
" transform="scale(0.015625)"/>
       </defs>
       <use xlink:href="#ArialMT-32"/>
       <use xlink:href="#ArialMT-30" x="55.615234"/>
      </g>
     </g>
    </g>
    <g id="ytick_3">
     <g id="line2d_5">
      <g>
       <use xlink:href="#m511c90c79d" x="49.5" y="270.304451" style="fill: #262626; stroke: #262626; stroke-width: 1.25"/>
      </g>
     </g>
     <g id="text_6">
      <!-- 40 -->
      <g style="fill: #262626" transform="translate(27.765938 274.241248) scale(0.11 -0.11)">
       <defs>
        <path id="ArialMT-34" d="M 2069 0 
L 2069 1097 
L 81 1097 
L 81 1613 
L 2172 4581 
L 2631 4581 
L 2631 1613 
L 3250 1613 
L 3250 1097 
L 2631 1097 
L 2631 0 
L 2069 0 
z
M 2069 1613 
L 2069 3678 
L 634 1613 
L 2069 1613 
z
" transform="scale(0.015625)"/>
       </defs>
       <use xlink:href="#ArialMT-34"/>
       <use xlink:href="#ArialMT-30" x="55.615234"/>
      </g>
     </g>
    </g>
    <g id="ytick_4">
     <g id="line2d_6">
      <g>
       <use xlink:href="#m511c90c79d" x="49.5" y="176.583433" style="fill: #262626; stroke: #262626; stroke-width: 1.25"/>
      </g>
     </g>
     <g id="text_7">
      <!-- 60 -->
      <g style="fill: #262626" transform="translate(27.765938 180.52023) scale(0.11 -0.11)">
       <defs>
        <path id="ArialMT-36" d="M 3184 3459 
L 2625 3416 
Q 2550 3747 2413 3897 
Q 2184 4138 1850 4138 
Q 1581 4138 1378 3988 
Q 1113 3794 959 3422 
Q 806 3050 800 2363 
Q 1003 2672 1297 2822 
Q 1591 2972 1913 2972 
Q 2475 2972 2870 2558 
Q 3266 2144 3266 1488 
Q 3266 1056 3080 686 
Q 2894 316 2569 119 
Q 2244 -78 1831 -78 
Q 1128 -78 684 439 
Q 241 956 241 2144 
Q 241 3472 731 4075 
Q 1159 4600 1884 4600 
Q 2425 4600 2770 4297 
Q 3116 3994 3184 3459 
z
M 888 1484 
Q 888 1194 1011 928 
Q 1134 663 1356 523 
Q 1578 384 1822 384 
Q 2178 384 2434 671 
Q 2691 959 2691 1453 
Q 2691 1928 2437 2201 
Q 2184 2475 1800 2475 
Q 1419 2475 1153 2201 
Q 888 1928 888 1484 
z
" transform="scale(0.015625)"/>
       </defs>
       <use xlink:href="#ArialMT-36"/>
       <use xlink:href="#ArialMT-30" x="55.615234"/>
      </g>
     </g>
    </g>
    <g id="ytick_5">
     <g id="line2d_7">
      <g>
       <use xlink:href="#m511c90c79d" x="49.5" y="82.862416" style="fill: #262626; stroke: #262626; stroke-width: 1.25"/>
      </g>
     </g>
     <g id="text_8">
      <!-- 80 -->
      <g style="fill: #262626" transform="translate(27.765938 86.799213) scale(0.11 -0.11)">
       <defs>
        <path id="ArialMT-38" d="M 1131 2484 
Q 781 2613 612 2850 
Q 444 3088 444 3419 
Q 444 3919 803 4259 
Q 1163 4600 1759 4600 
Q 2359 4600 2725 4251 
Q 3091 3903 3091 3403 
Q 3091 3084 2923 2848 
Q 2756 2613 2416 2484 
Q 2838 2347 3058 2040 
Q 3278 1734 3278 1309 
Q 3278 722 2862 322 
Q 2447 -78 1769 -78 
Q 1091 -78 675 323 
Q 259 725 259 1325 
Q 259 1772 486 2073 
Q 713 2375 1131 2484 
z
M 1019 3438 
Q 1019 3113 1228 2906 
Q 1438 2700 1772 2700 
Q 2097 2700 2305 2904 
Q 2513 3109 2513 3406 
Q 2513 3716 2298 3927 
Q 2084 4138 1766 4138 
Q 1444 4138 1231 3931 
Q 1019 3725 1019 3438 
z
M 838 1322 
Q 838 1081 952 856 
Q 1066 631 1291 507 
Q 1516 384 1775 384 
Q 2178 384 2440 643 
Q 2703 903 2703 1303 
Q 2703 1709 2433 1975 
Q 2163 2241 1756 2241 
Q 1359 2241 1098 1978 
Q 838 1716 838 1322 
z
" transform="scale(0.015625)"/>
       </defs>
       <use xlink:href="#ArialMT-38"/>
       <use xlink:href="#ArialMT-30" x="55.615234"/>
      </g>
     </g>
    </g>
    <g id="text_9">
     <!-- age -->
     <g style="fill: #262626" transform="translate(21.240313 275.440645) rotate(-90) scale(0.12 -0.12)">
      <defs>
       <path id="ArialMT-61" d="M 2588 409 
Q 2275 144 1986 34 
Q 1697 -75 1366 -75 
Q 819 -75 525 192 
Q 231 459 231 875 
Q 231 1119 342 1320 
Q 453 1522 633 1644 
Q 813 1766 1038 1828 
Q 1203 1872 1538 1913 
Q 2219 1994 2541 2106 
Q 2544 2222 2544 2253 
Q 2544 2597 2384 2738 
Q 2169 2928 1744 2928 
Q 1347 2928 1158 2789 
Q 969 2650 878 2297 
L 328 2372 
Q 403 2725 575 2942 
Q 747 3159 1072 3276 
Q 1397 3394 1825 3394 
Q 2250 3394 2515 3294 
Q 2781 3194 2906 3042 
Q 3031 2891 3081 2659 
Q 3109 2516 3109 2141 
L 3109 1391 
Q 3109 606 3145 398 
Q 3181 191 3288 0 
L 2700 0 
Q 2613 175 2588 409 
z
M 2541 1666 
Q 2234 1541 1622 1453 
Q 1275 1403 1131 1340 
Q 988 1278 909 1158 
Q 831 1038 831 891 
Q 831 666 1001 516 
Q 1172 366 1500 366 
Q 1825 366 2078 508 
Q 2331 650 2450 897 
Q 2541 1088 2541 1459 
L 2541 1666 
z
" transform="scale(0.015625)"/>
       <path id="ArialMT-67" d="M 319 -275 
L 866 -356 
Q 900 -609 1056 -725 
Q 1266 -881 1628 -881 
Q 2019 -881 2231 -725 
Q 2444 -569 2519 -288 
Q 2563 -116 2559 434 
Q 2191 0 1641 0 
Q 956 0 581 494 
Q 206 988 206 1678 
Q 206 2153 378 2554 
Q 550 2956 876 3175 
Q 1203 3394 1644 3394 
Q 2231 3394 2613 2919 
L 2613 3319 
L 3131 3319 
L 3131 450 
Q 3131 -325 2973 -648 
Q 2816 -972 2473 -1159 
Q 2131 -1347 1631 -1347 
Q 1038 -1347 672 -1080 
Q 306 -813 319 -275 
z
M 784 1719 
Q 784 1066 1043 766 
Q 1303 466 1694 466 
Q 2081 466 2343 764 
Q 2606 1063 2606 1700 
Q 2606 2309 2336 2618 
Q 2066 2928 1684 2928 
Q 1309 2928 1046 2623 
Q 784 2319 784 1719 
z
" transform="scale(0.015625)"/>
      </defs>
      <use xlink:href="#ArialMT-61"/>
      <use xlink:href="#ArialMT-67" x="55.615234"/>
      <use xlink:href="#ArialMT-65" x="111.230469"/>
     </g>
    </g>
   </g>
   <g id="patch_3">
    <path d="M 73.544344 345.281264 
L 265.899094 345.281264 
L 265.899094 181.269484 
L 73.544344 181.269484 
L 73.544344 345.281264 
z
" clip-path="url(#p7bb5825f0e)" style="fill: #b24d4e; stroke: #4c4c4c; stroke-width: 3; stroke-linejoin: miter"/>
   </g>
   <g id="line2d_8">
    <path d="M 169.721719 345.281264 
L 169.721719 457.371601 
" clip-path="url(#p7bb5825f0e)" style="fill: none; stroke: #4c4c4c; stroke-width: 3"/>
   </g>
   <g id="line2d_9">
    <path d="M 169.721719 181.269484 
L 169.721719 73.490314 
" clip-path="url(#p7bb5825f0e)" style="fill: none; stroke: #4c4c4c; stroke-width: 3"/>
   </g>
   <g id="line2d_10">
    <path d="M 121.633031 457.371601 
L 217.810406 457.371601 
" clip-path="url(#p7bb5825f0e)" style="fill: none; stroke: #4c4c4c; stroke-width: 3; stroke-linecap: round"/>
   </g>
   <g id="line2d_11">
    <path d="M 121.633031 73.490314 
L 217.810406 73.490314 
" clip-path="url(#p7bb5825f0e)" style="fill: none; stroke: #4c4c4c; stroke-width: 3; stroke-linecap: round"/>
   </g>
   <g id="patch_4">
    <path d="M 313.987781 181.269484 
L 506.342531 181.269484 
L 506.342531 92.234518 
L 313.987781 92.234518 
L 313.987781 181.269484 
z
" clip-path="url(#p7bb5825f0e)" style="fill: #b24d4e; stroke: #4c4c4c; stroke-width: 3; stroke-linejoin: miter"/>
   </g>
   <g id="line2d_12">
    <path d="M 410.165156 181.269484 
L 410.165156 279.676552 
" clip-path="url(#p7bb5825f0e)" style="fill: none; stroke: #4c4c4c; stroke-width: 3"/>
   </g>
   <g id="line2d_13">
    <path d="M 410.165156 92.234518 
L 410.165156 73.490314 
" clip-path="url(#p7bb5825f0e)" style="fill: none; stroke: #4c4c4c; stroke-width: 3"/>
   </g>
   <g id="line2d_14">
    <path d="M 362.076469 279.676552 
L 458.253844 279.676552 
" clip-path="url(#p7bb5825f0e)" style="fill: none; stroke: #4c4c4c; stroke-width: 3; stroke-linecap: round"/>
   </g>
   <g id="line2d_15">
    <path d="M 362.076469 73.490314 
L 458.253844 73.490314 
" clip-path="url(#p7bb5825f0e)" style="fill: none; stroke: #4c4c4c; stroke-width: 3; stroke-linecap: round"/>
   </g>
   <g id="line2d_16">
    <path d="M 73.544344 256.246298 
L 265.899094 256.246298 
" clip-path="url(#p7bb5825f0e)" style="fill: none; stroke: #4c4c4c; stroke-width: 3"/>
   </g>
   <g id="line2d_17">
    <path d="M 313.987781 125.036874 
L 506.342531 125.036874 
" clip-path="url(#p7bb5825f0e)" style="fill: none; stroke: #4c4c4c; stroke-width: 3"/>
   </g>
   <g id="patch_5">
    <path d="M 49.5 476.565666 
L 49.5 54.29625 
" style="fill: none; stroke: #262626; stroke-width: 1.25; stroke-linejoin: miter; stroke-linecap: square"/>
   </g>
   <g id="patch_6">
    <path d="M 530.386875 476.565666 
L 530.386875 54.29625 
" style="fill: none; stroke: #262626; stroke-width: 1.25; stroke-linejoin: miter; stroke-linecap: square"/>
   </g>
   <g id="patch_7">
    <path d="M 49.5 476.565666 
L 530.386875 476.565666 
" style="fill: none; stroke: #262626; stroke-width: 1.25; stroke-linejoin: miter; stroke-linecap: square"/>
   </g>
   <g id="patch_8">
    <path d="M 49.5 54.29625 
L 530.386875 54.29625 
" style="fill: none; stroke: #262626; stroke-width: 1.25; stroke-linejoin: miter; stroke-linecap: square"/>
   </g>
   <g id="text_10">
    <!-- age for each stroke -->
    <g style="fill: #262626" transform="translate(238.584375 48.29625) scale(0.12 -0.12)">
     <defs>
      <path id="ArialMT-20" transform="scale(0.015625)"/>
      <path id="ArialMT-66" d="M 556 0 
L 556 2881 
L 59 2881 
L 59 3319 
L 556 3319 
L 556 3672 
Q 556 4006 616 4169 
Q 697 4388 901 4523 
Q 1106 4659 1475 4659 
Q 1713 4659 2000 4603 
L 1916 4113 
Q 1741 4144 1584 4144 
Q 1328 4144 1222 4034 
Q 1116 3925 1116 3625 
L 1116 3319 
L 1763 3319 
L 1763 2881 
L 1116 2881 
L 1116 0 
L 556 0 
z
" transform="scale(0.015625)"/>
      <path id="ArialMT-63" d="M 2588 1216 
L 3141 1144 
Q 3050 572 2676 248 
Q 2303 -75 1759 -75 
Q 1078 -75 664 370 
Q 250 816 250 1647 
Q 250 2184 428 2587 
Q 606 2991 970 3192 
Q 1334 3394 1763 3394 
Q 2303 3394 2647 3120 
Q 2991 2847 3088 2344 
L 2541 2259 
Q 2463 2594 2264 2762 
Q 2066 2931 1784 2931 
Q 1359 2931 1093 2626 
Q 828 2322 828 1663 
Q 828 994 1084 691 
Q 1341 388 1753 388 
Q 2084 388 2306 591 
Q 2528 794 2588 1216 
z
" transform="scale(0.015625)"/>
      <path id="ArialMT-68" d="M 422 0 
L 422 4581 
L 984 4581 
L 984 2938 
Q 1378 3394 1978 3394 
Q 2347 3394 2619 3248 
Q 2891 3103 3008 2847 
Q 3125 2591 3125 2103 
L 3125 0 
L 2563 0 
L 2563 2103 
Q 2563 2525 2380 2717 
Q 2197 2909 1863 2909 
Q 1613 2909 1392 2779 
Q 1172 2650 1078 2428 
Q 984 2206 984 1816 
L 984 0 
L 422 0 
z
" transform="scale(0.015625)"/>
     </defs>
     <use xlink:href="#ArialMT-61"/>
     <use xlink:href="#ArialMT-67" x="55.615234"/>
     <use xlink:href="#ArialMT-65" x="111.230469"/>
     <use xlink:href="#ArialMT-20" x="166.845703"/>
     <use xlink:href="#ArialMT-66" x="194.628906"/>
     <use xlink:href="#ArialMT-6f" x="222.412109"/>
     <use xlink:href="#ArialMT-72" x="278.027344"/>
     <use xlink:href="#ArialMT-20" x="311.328125"/>
     <use xlink:href="#ArialMT-65" x="339.111328"/>
     <use xlink:href="#ArialMT-61" x="394.726562"/>
     <use xlink:href="#ArialMT-63" x="450.341797"/>
     <use xlink:href="#ArialMT-68" x="500.341797"/>
     <use xlink:href="#ArialMT-20" x="555.957031"/>
     <use xlink:href="#ArialMT-73" x="583.740234"/>
     <use xlink:href="#ArialMT-74" x="633.740234"/>
     <use xlink:href="#ArialMT-72" x="661.523438"/>
     <use xlink:href="#ArialMT-6f" x="694.824219"/>
     <use xlink:href="#ArialMT-6b" x="750.439453"/>
     <use xlink:href="#ArialMT-65" x="800.439453"/>
    </g>
   </g>
  </g>
  <g id="axes_2">
   <g id="patch_9">
    <path d="M 586.153125 476.565666 
L 1067.04 476.565666 
L 1067.04 54.29625 
L 586.153125 54.29625 
z
" style="fill: #ffffff"/>
   </g>
   <g id="matplotlib.axis_3">
    <g id="xtick_3">
     <g id="line2d_18">
      <g>
       <use xlink:href="#m4f37f5443c" x="706.374844" y="476.565666" style="fill: #262626; stroke: #262626; stroke-width: 1.25"/>
      </g>
     </g>
     <g id="text_11">
      <!-- 0 -->
      <g style="fill: #262626" transform="translate(701.146147 494.14705) rotate(-30) scale(0.09 -0.09)">
       <use xlink:href="#ArialMT-30"/>
      </g>
     </g>
    </g>
    <g id="xtick_4">
     <g id="line2d_19">
      <g>
       <use xlink:href="#m4f37f5443c" x="946.818281" y="476.565666" style="fill: #262626; stroke: #262626; stroke-width: 1.25"/>
      </g>
     </g>
     <g id="text_12">
      <!-- 1 -->
      <g style="fill: #262626" transform="translate(941.589584 494.14705) rotate(-30) scale(0.09 -0.09)">
       <use xlink:href="#ArialMT-31"/>
      </g>
     </g>
    </g>
    <g id="text_13">
     <!-- stroke -->
     <g style="fill: #262626" transform="translate(810.25875 508.285528) scale(0.12 -0.12)">
      <use xlink:href="#ArialMT-73"/>
      <use xlink:href="#ArialMT-74" x="50"/>
      <use xlink:href="#ArialMT-72" x="77.783203"/>
      <use xlink:href="#ArialMT-6f" x="111.083984"/>
      <use xlink:href="#ArialMT-6b" x="166.699219"/>
      <use xlink:href="#ArialMT-65" x="216.699219"/>
     </g>
    </g>
   </g>
   <g id="matplotlib.axis_4">
    <g id="ytick_6">
     <g id="line2d_20">
      <g>
       <use xlink:href="#m511c90c79d" x="586.153125" y="466.444966" style="fill: #262626; stroke: #262626; stroke-width: 1.25"/>
      </g>
     </g>
     <g id="text_14">
      <!-- 50 -->
      <g style="fill: #262626" transform="translate(564.419062 470.381762) scale(0.11 -0.11)">
       <defs>
        <path id="ArialMT-35" d="M 266 1200 
L 856 1250 
Q 922 819 1161 601 
Q 1400 384 1738 384 
Q 2144 384 2425 690 
Q 2706 997 2706 1503 
Q 2706 1984 2436 2262 
Q 2166 2541 1728 2541 
Q 1456 2541 1237 2417 
Q 1019 2294 894 2097 
L 366 2166 
L 809 4519 
L 3088 4519 
L 3088 3981 
L 1259 3981 
L 1013 2750 
Q 1425 3038 1878 3038 
Q 2478 3038 2890 2622 
Q 3303 2206 3303 1553 
Q 3303 931 2941 478 
Q 2500 -78 1738 -78 
Q 1113 -78 717 272 
Q 322 622 266 1200 
z
" transform="scale(0.015625)"/>
       </defs>
       <use xlink:href="#ArialMT-35"/>
       <use xlink:href="#ArialMT-30" x="55.615234"/>
      </g>
     </g>
    </g>
    <g id="ytick_7">
     <g id="line2d_21">
      <g>
       <use xlink:href="#m511c90c79d" x="586.153125" y="377.837892" style="fill: #262626; stroke: #262626; stroke-width: 1.25"/>
      </g>
     </g>
     <g id="text_15">
      <!-- 100 -->
      <g style="fill: #262626" transform="translate(558.302031 381.774689) scale(0.11 -0.11)">
       <use xlink:href="#ArialMT-31"/>
       <use xlink:href="#ArialMT-30" x="55.615234"/>
       <use xlink:href="#ArialMT-30" x="111.230469"/>
      </g>
     </g>
    </g>
    <g id="ytick_8">
     <g id="line2d_22">
      <g>
       <use xlink:href="#m511c90c79d" x="586.153125" y="289.230818" style="fill: #262626; stroke: #262626; stroke-width: 1.25"/>
      </g>
     </g>
     <g id="text_16">
      <!-- 150 -->
      <g style="fill: #262626" transform="translate(558.302031 293.167615) scale(0.11 -0.11)">
       <use xlink:href="#ArialMT-31"/>
       <use xlink:href="#ArialMT-35" x="55.615234"/>
       <use xlink:href="#ArialMT-30" x="111.230469"/>
      </g>
     </g>
    </g>
    <g id="ytick_9">
     <g id="line2d_23">
      <g>
       <use xlink:href="#m511c90c79d" x="586.153125" y="200.623744" style="fill: #262626; stroke: #262626; stroke-width: 1.25"/>
      </g>
     </g>
     <g id="text_17">
      <!-- 200 -->
      <g style="fill: #262626" transform="translate(558.302031 204.560541) scale(0.11 -0.11)">
       <use xlink:href="#ArialMT-32"/>
       <use xlink:href="#ArialMT-30" x="55.615234"/>
       <use xlink:href="#ArialMT-30" x="111.230469"/>
      </g>
     </g>
    </g>
    <g id="ytick_10">
     <g id="line2d_24">
      <g>
       <use xlink:href="#m511c90c79d" x="586.153125" y="112.01667" style="fill: #262626; stroke: #262626; stroke-width: 1.25"/>
      </g>
     </g>
     <g id="text_18">
      <!-- 250 -->
      <g style="fill: #262626" transform="translate(558.302031 115.953467) scale(0.11 -0.11)">
       <use xlink:href="#ArialMT-32"/>
       <use xlink:href="#ArialMT-35" x="55.615234"/>
       <use xlink:href="#ArialMT-30" x="111.230469"/>
      </g>
     </g>
    </g>
    <g id="text_19">
     <!-- avg_glucose_level -->
     <g style="fill: #262626" transform="translate(551.776406 314.795958) rotate(-90) scale(0.12 -0.12)">
      <defs>
       <path id="ArialMT-76" d="M 1344 0 
L 81 3319 
L 675 3319 
L 1388 1331 
Q 1503 1009 1600 663 
Q 1675 925 1809 1294 
L 2547 3319 
L 3125 3319 
L 1869 0 
L 1344 0 
z
" transform="scale(0.015625)"/>
       <path id="ArialMT-5f" d="M -97 -1272 
L -97 -866 
L 3631 -866 
L 3631 -1272 
L -97 -1272 
z
" transform="scale(0.015625)"/>
       <path id="ArialMT-6c" d="M 409 0 
L 409 4581 
L 972 4581 
L 972 0 
L 409 0 
z
" transform="scale(0.015625)"/>
       <path id="ArialMT-75" d="M 2597 0 
L 2597 488 
Q 2209 -75 1544 -75 
Q 1250 -75 995 37 
Q 741 150 617 320 
Q 494 491 444 738 
Q 409 903 409 1263 
L 409 3319 
L 972 3319 
L 972 1478 
Q 972 1038 1006 884 
Q 1059 663 1231 536 
Q 1403 409 1656 409 
Q 1909 409 2131 539 
Q 2353 669 2445 892 
Q 2538 1116 2538 1541 
L 2538 3319 
L 3100 3319 
L 3100 0 
L 2597 0 
z
" transform="scale(0.015625)"/>
      </defs>
      <use xlink:href="#ArialMT-61"/>
      <use xlink:href="#ArialMT-76" x="55.615234"/>
      <use xlink:href="#ArialMT-67" x="105.615234"/>
      <use xlink:href="#ArialMT-5f" x="161.230469"/>
      <use xlink:href="#ArialMT-67" x="216.845703"/>
      <use xlink:href="#ArialMT-6c" x="272.460938"/>
      <use xlink:href="#ArialMT-75" x="294.677734"/>
      <use xlink:href="#ArialMT-63" x="350.292969"/>
      <use xlink:href="#ArialMT-6f" x="400.292969"/>
      <use xlink:href="#ArialMT-73" x="455.908203"/>
      <use xlink:href="#ArialMT-65" x="505.908203"/>
      <use xlink:href="#ArialMT-5f" x="561.523438"/>
      <use xlink:href="#ArialMT-6c" x="617.138672"/>
      <use xlink:href="#ArialMT-65" x="639.355469"/>
      <use xlink:href="#ArialMT-76" x="694.970703"/>
      <use xlink:href="#ArialMT-65" x="744.970703"/>
      <use xlink:href="#ArialMT-6c" x="800.585938"/>
     </g>
    </g>
   </g>
   <g id="patch_10">
    <path d="M 610.197469 418.481956 
L 802.552219 418.481956 
L 802.552219 355.287391 
L 610.197469 355.287391 
L 610.197469 418.481956 
z
" clip-path="url(#paaf568543b)" style="fill: #b24d4e; stroke: #4c4c4c; stroke-width: 3; stroke-linejoin: miter"/>
   </g>
   <g id="line2d_25">
    <path d="M 706.374844 418.481956 
L 706.374844 457.371601 
" clip-path="url(#paaf568543b)" style="fill: none; stroke: #4c4c4c; stroke-width: 3"/>
   </g>
   <g id="line2d_26">
    <path d="M 706.374844 355.287391 
L 706.374844 260.894276 
" clip-path="url(#paaf568543b)" style="fill: none; stroke: #4c4c4c; stroke-width: 3"/>
   </g>
   <g id="line2d_27">
    <path d="M 658.286156 457.371601 
L 754.463531 457.371601 
" clip-path="url(#paaf568543b)" style="fill: none; stroke: #4c4c4c; stroke-width: 3; stroke-linecap: round"/>
   </g>
   <g id="line2d_28">
    <path d="M 658.286156 260.894276 
L 754.463531 260.894276 
" clip-path="url(#paaf568543b)" style="fill: none; stroke: #4c4c4c; stroke-width: 3; stroke-linecap: round"/>
   </g>
   <g id="patch_11">
    <path d="M 850.640906 413.200975 
L 1042.995656 413.200975 
L 1042.995656 214.459739 
L 850.640906 214.459739 
L 850.640906 413.200975 
z
" clip-path="url(#paaf568543b)" style="fill: #b24d4e; stroke: #4c4c4c; stroke-width: 3; stroke-linejoin: miter"/>
   </g>
   <g id="line2d_29">
    <path d="M 946.818281 413.200975 
L 946.818281 455.617181 
" clip-path="url(#paaf568543b)" style="fill: none; stroke: #4c4c4c; stroke-width: 3"/>
   </g>
   <g id="line2d_30">
    <path d="M 946.818281 214.459739 
L 946.818281 73.490314 
" clip-path="url(#paaf568543b)" style="fill: none; stroke: #4c4c4c; stroke-width: 3"/>
   </g>
   <g id="line2d_31">
    <path d="M 898.729594 455.617181 
L 994.906969 455.617181 
" clip-path="url(#paaf568543b)" style="fill: none; stroke: #4c4c4c; stroke-width: 3; stroke-linecap: round"/>
   </g>
   <g id="line2d_32">
    <path d="M 898.729594 73.490314 
L 994.906969 73.490314 
" clip-path="url(#paaf568543b)" style="fill: none; stroke: #4c4c4c; stroke-width: 3; stroke-linecap: round"/>
   </g>
   <g id="line2d_33">
    <path d="M 610.197469 393.149194 
L 802.552219 393.149194 
" clip-path="url(#paaf568543b)" style="fill: none; stroke: #4c4c4c; stroke-width: 3"/>
   </g>
   <g id="line2d_34">
    <path d="M 850.640906 369.880976 
L 1042.995656 369.880976 
" clip-path="url(#paaf568543b)" style="fill: none; stroke: #4c4c4c; stroke-width: 3"/>
   </g>
   <g id="patch_12">
    <path d="M 586.153125 476.565666 
L 586.153125 54.29625 
" style="fill: none; stroke: #262626; stroke-width: 1.25; stroke-linejoin: miter; stroke-linecap: square"/>
   </g>
   <g id="patch_13">
    <path d="M 1067.04 476.565666 
L 1067.04 54.29625 
" style="fill: none; stroke: #262626; stroke-width: 1.25; stroke-linejoin: miter; stroke-linecap: square"/>
   </g>
   <g id="patch_14">
    <path d="M 586.153125 476.565666 
L 1067.04 476.565666 
" style="fill: none; stroke: #262626; stroke-width: 1.25; stroke-linejoin: miter; stroke-linecap: square"/>
   </g>
   <g id="patch_15">
    <path d="M 586.153125 54.29625 
L 1067.04 54.29625 
" style="fill: none; stroke: #262626; stroke-width: 1.25; stroke-linejoin: miter; stroke-linecap: square"/>
   </g>
   <g id="text_20">
    <!-- avg_glucose_level for each stroke -->
    <g style="fill: #262626" transform="translate(735.882187 48.29625) scale(0.12 -0.12)">
     <use xlink:href="#ArialMT-61"/>
     <use xlink:href="#ArialMT-76" x="55.615234"/>
     <use xlink:href="#ArialMT-67" x="105.615234"/>
     <use xlink:href="#ArialMT-5f" x="161.230469"/>
     <use xlink:href="#ArialMT-67" x="216.845703"/>
     <use xlink:href="#ArialMT-6c" x="272.460938"/>
     <use xlink:href="#ArialMT-75" x="294.677734"/>
     <use xlink:href="#ArialMT-63" x="350.292969"/>
     <use xlink:href="#ArialMT-6f" x="400.292969"/>
     <use xlink:href="#ArialMT-73" x="455.908203"/>
     <use xlink:href="#ArialMT-65" x="505.908203"/>
     <use xlink:href="#ArialMT-5f" x="561.523438"/>
     <use xlink:href="#ArialMT-6c" x="617.138672"/>
     <use xlink:href="#ArialMT-65" x="639.355469"/>
     <use xlink:href="#ArialMT-76" x="694.970703"/>
     <use xlink:href="#ArialMT-65" x="744.970703"/>
     <use xlink:href="#ArialMT-6c" x="800.585938"/>
     <use xlink:href="#ArialMT-20" x="822.802734"/>
     <use xlink:href="#ArialMT-66" x="850.585938"/>
     <use xlink:href="#ArialMT-6f" x="878.369141"/>
     <use xlink:href="#ArialMT-72" x="933.984375"/>
     <use xlink:href="#ArialMT-20" x="967.285156"/>
     <use xlink:href="#ArialMT-65" x="995.068359"/>
     <use xlink:href="#ArialMT-61" x="1050.683594"/>
     <use xlink:href="#ArialMT-63" x="1106.298828"/>
     <use xlink:href="#ArialMT-68" x="1156.298828"/>
     <use xlink:href="#ArialMT-20" x="1211.914062"/>
     <use xlink:href="#ArialMT-73" x="1239.697266"/>
     <use xlink:href="#ArialMT-74" x="1289.697266"/>
     <use xlink:href="#ArialMT-72" x="1317.480469"/>
     <use xlink:href="#ArialMT-6f" x="1350.78125"/>
     <use xlink:href="#ArialMT-6b" x="1406.396484"/>
     <use xlink:href="#ArialMT-65" x="1456.396484"/>
    </g>
   </g>
  </g>
  <g id="axes_3">
   <g id="patch_16">
    <path d="M 49.5 960.737541 
L 530.386875 960.737541 
L 530.386875 538.468125 
L 49.5 538.468125 
z
" style="fill: #ffffff"/>
   </g>
   <g id="matplotlib.axis_5">
    <g id="xtick_5">
     <g id="line2d_35">
      <g>
       <use xlink:href="#m4f37f5443c" x="169.721719" y="960.737541" style="fill: #262626; stroke: #262626; stroke-width: 1.25"/>
      </g>
     </g>
     <g id="text_21">
      <!-- 0 -->
      <g style="fill: #262626" transform="translate(164.493022 978.318925) rotate(-30) scale(0.09 -0.09)">
       <use xlink:href="#ArialMT-30"/>
      </g>
     </g>
    </g>
    <g id="xtick_6">
     <g id="line2d_36">
      <g>
       <use xlink:href="#m4f37f5443c" x="410.165156" y="960.737541" style="fill: #262626; stroke: #262626; stroke-width: 1.25"/>
      </g>
     </g>
     <g id="text_22">
      <!-- 1 -->
      <g style="fill: #262626" transform="translate(404.936459 978.318925) rotate(-30) scale(0.09 -0.09)">
       <use xlink:href="#ArialMT-31"/>
      </g>
     </g>
    </g>
    <g id="text_23">
     <!-- stroke -->
     <g style="fill: #262626" transform="translate(273.605625 992.457403) scale(0.12 -0.12)">
      <use xlink:href="#ArialMT-73"/>
      <use xlink:href="#ArialMT-74" x="50"/>
      <use xlink:href="#ArialMT-72" x="77.783203"/>
      <use xlink:href="#ArialMT-6f" x="111.083984"/>
      <use xlink:href="#ArialMT-6b" x="166.699219"/>
      <use xlink:href="#ArialMT-65" x="216.699219"/>
     </g>
    </g>
   </g>
   <g id="matplotlib.axis_6">
    <g id="ytick_11">
     <g id="line2d_37">
      <g>
       <use xlink:href="#m511c90c79d" x="49.5" y="944.724813" style="fill: #262626; stroke: #262626; stroke-width: 1.25"/>
      </g>
     </g>
     <g id="text_24">
      <!-- 10 -->
      <g style="fill: #262626" transform="translate(27.765938 948.66161) scale(0.11 -0.11)">
       <use xlink:href="#ArialMT-31"/>
       <use xlink:href="#ArialMT-30" x="55.615234"/>
      </g>
     </g>
    </g>
    <g id="ytick_12">
     <g id="line2d_38">
      <g>
       <use xlink:href="#m511c90c79d" x="49.5" y="891.702536" style="fill: #262626; stroke: #262626; stroke-width: 1.25"/>
      </g>
     </g>
     <g id="text_25">
      <!-- 15 -->
      <g style="fill: #262626" transform="translate(27.765938 895.639332) scale(0.11 -0.11)">
       <use xlink:href="#ArialMT-31"/>
       <use xlink:href="#ArialMT-35" x="55.615234"/>
      </g>
     </g>
    </g>
    <g id="ytick_13">
     <g id="line2d_39">
      <g>
       <use xlink:href="#m511c90c79d" x="49.5" y="838.680258" style="fill: #262626; stroke: #262626; stroke-width: 1.25"/>
      </g>
     </g>
     <g id="text_26">
      <!-- 20 -->
      <g style="fill: #262626" transform="translate(27.765938 842.617055) scale(0.11 -0.11)">
       <use xlink:href="#ArialMT-32"/>
       <use xlink:href="#ArialMT-30" x="55.615234"/>
      </g>
     </g>
    </g>
    <g id="ytick_14">
     <g id="line2d_40">
      <g>
       <use xlink:href="#m511c90c79d" x="49.5" y="785.657981" style="fill: #262626; stroke: #262626; stroke-width: 1.25"/>
      </g>
     </g>
     <g id="text_27">
      <!-- 25 -->
      <g style="fill: #262626" transform="translate(27.765938 789.594778) scale(0.11 -0.11)">
       <use xlink:href="#ArialMT-32"/>
       <use xlink:href="#ArialMT-35" x="55.615234"/>
      </g>
     </g>
    </g>
    <g id="ytick_15">
     <g id="line2d_41">
      <g>
       <use xlink:href="#m511c90c79d" x="49.5" y="732.635704" style="fill: #262626; stroke: #262626; stroke-width: 1.25"/>
      </g>
     </g>
     <g id="text_28">
      <!-- 30 -->
      <g style="fill: #262626" transform="translate(27.765938 736.572501) scale(0.11 -0.11)">
       <defs>
        <path id="ArialMT-33" d="M 269 1209 
L 831 1284 
Q 928 806 1161 595 
Q 1394 384 1728 384 
Q 2125 384 2398 659 
Q 2672 934 2672 1341 
Q 2672 1728 2419 1979 
Q 2166 2231 1775 2231 
Q 1616 2231 1378 2169 
L 1441 2663 
Q 1497 2656 1531 2656 
Q 1891 2656 2178 2843 
Q 2466 3031 2466 3422 
Q 2466 3731 2256 3934 
Q 2047 4138 1716 4138 
Q 1388 4138 1169 3931 
Q 950 3725 888 3313 
L 325 3413 
Q 428 3978 793 4289 
Q 1159 4600 1703 4600 
Q 2078 4600 2393 4439 
Q 2709 4278 2876 4000 
Q 3044 3722 3044 3409 
Q 3044 3113 2884 2869 
Q 2725 2625 2413 2481 
Q 2819 2388 3044 2092 
Q 3269 1797 3269 1353 
Q 3269 753 2831 336 
Q 2394 -81 1725 -81 
Q 1122 -81 723 278 
Q 325 638 269 1209 
z
" transform="scale(0.015625)"/>
       </defs>
       <use xlink:href="#ArialMT-33"/>
       <use xlink:href="#ArialMT-30" x="55.615234"/>
      </g>
     </g>
    </g>
    <g id="ytick_16">
     <g id="line2d_42">
      <g>
       <use xlink:href="#m511c90c79d" x="49.5" y="679.613427" style="fill: #262626; stroke: #262626; stroke-width: 1.25"/>
      </g>
     </g>
     <g id="text_29">
      <!-- 35 -->
      <g style="fill: #262626" transform="translate(27.765938 683.550224) scale(0.11 -0.11)">
       <use xlink:href="#ArialMT-33"/>
       <use xlink:href="#ArialMT-35" x="55.615234"/>
      </g>
     </g>
    </g>
    <g id="ytick_17">
     <g id="line2d_43">
      <g>
       <use xlink:href="#m511c90c79d" x="49.5" y="626.59115" style="fill: #262626; stroke: #262626; stroke-width: 1.25"/>
      </g>
     </g>
     <g id="text_30">
      <!-- 40 -->
      <g style="fill: #262626" transform="translate(27.765938 630.527947) scale(0.11 -0.11)">
       <use xlink:href="#ArialMT-34"/>
       <use xlink:href="#ArialMT-30" x="55.615234"/>
      </g>
     </g>
    </g>
    <g id="ytick_18">
     <g id="line2d_44">
      <g>
       <use xlink:href="#m511c90c79d" x="49.5" y="573.568872" style="fill: #262626; stroke: #262626; stroke-width: 1.25"/>
      </g>
     </g>
     <g id="text_31">
      <!-- 45 -->
      <g style="fill: #262626" transform="translate(27.765938 577.505669) scale(0.11 -0.11)">
       <use xlink:href="#ArialMT-34"/>
       <use xlink:href="#ArialMT-35" x="55.615234"/>
      </g>
     </g>
    </g>
    <g id="text_32">
     <!-- bmi -->
     <g style="fill: #262626" transform="translate(21.380938 759.270333) rotate(-90) scale(0.12 -0.12)">
      <defs>
       <path id="ArialMT-62" d="M 941 0 
L 419 0 
L 419 4581 
L 981 4581 
L 981 2947 
Q 1338 3394 1891 3394 
Q 2197 3394 2470 3270 
Q 2744 3147 2920 2923 
Q 3097 2700 3197 2384 
Q 3297 2069 3297 1709 
Q 3297 856 2875 390 
Q 2453 -75 1863 -75 
Q 1275 -75 941 416 
L 941 0 
z
M 934 1684 
Q 934 1088 1097 822 
Q 1363 388 1816 388 
Q 2184 388 2453 708 
Q 2722 1028 2722 1663 
Q 2722 2313 2464 2622 
Q 2206 2931 1841 2931 
Q 1472 2931 1203 2611 
Q 934 2291 934 1684 
z
" transform="scale(0.015625)"/>
       <path id="ArialMT-6d" d="M 422 0 
L 422 3319 
L 925 3319 
L 925 2853 
Q 1081 3097 1340 3245 
Q 1600 3394 1931 3394 
Q 2300 3394 2536 3241 
Q 2772 3088 2869 2813 
Q 3263 3394 3894 3394 
Q 4388 3394 4653 3120 
Q 4919 2847 4919 2278 
L 4919 0 
L 4359 0 
L 4359 2091 
Q 4359 2428 4304 2576 
Q 4250 2725 4106 2815 
Q 3963 2906 3769 2906 
Q 3419 2906 3187 2673 
Q 2956 2441 2956 1928 
L 2956 0 
L 2394 0 
L 2394 2156 
Q 2394 2531 2256 2718 
Q 2119 2906 1806 2906 
Q 1569 2906 1367 2781 
Q 1166 2656 1075 2415 
Q 984 2175 984 1722 
L 984 0 
L 422 0 
z
" transform="scale(0.015625)"/>
       <path id="ArialMT-69" d="M 425 3934 
L 425 4581 
L 988 4581 
L 988 3934 
L 425 3934 
z
M 425 0 
L 425 3319 
L 988 3319 
L 988 0 
L 425 0 
z
" transform="scale(0.015625)"/>
      </defs>
      <use xlink:href="#ArialMT-62"/>
      <use xlink:href="#ArialMT-6d" x="55.615234"/>
      <use xlink:href="#ArialMT-69" x="138.916016"/>
     </g>
    </g>
   </g>
   <g id="patch_17">
    <path d="M 73.544344 801.564664 
L 265.899094 801.564664 
L 265.899094 704.003674 
L 73.544344 704.003674 
L 73.544344 801.564664 
z
" clip-path="url(#p5e0ca7a627)" style="fill: #b24d4e; stroke: #4c4c4c; stroke-width: 3; stroke-linejoin: miter"/>
   </g>
   <g id="line2d_45">
    <path d="M 169.721719 801.564664 
L 169.721719 941.543476 
" clip-path="url(#p5e0ca7a627)" style="fill: none; stroke: #4c4c4c; stroke-width: 3"/>
   </g>
   <g id="line2d_46">
    <path d="M 169.721719 704.003674 
L 169.721719 557.662189 
" clip-path="url(#p5e0ca7a627)" style="fill: none; stroke: #4c4c4c; stroke-width: 3"/>
   </g>
   <g id="line2d_47">
    <path d="M 121.633031 941.543476 
L 217.810406 941.543476 
" clip-path="url(#p5e0ca7a627)" style="fill: none; stroke: #4c4c4c; stroke-width: 3; stroke-linecap: round"/>
   </g>
   <g id="line2d_48">
    <path d="M 121.633031 557.662189 
L 217.810406 557.662189 
" clip-path="url(#p5e0ca7a627)" style="fill: none; stroke: #4c4c4c; stroke-width: 3; stroke-linecap: round"/>
   </g>
   <g id="patch_18">
    <path d="M 313.987781 765.774627 
L 506.342531 765.774627 
L 506.342531 704.533897 
L 313.987781 704.533897 
L 313.987781 765.774627 
z
" clip-path="url(#p5e0ca7a627)" style="fill: #b24d4e; stroke: #4c4c4c; stroke-width: 3; stroke-linejoin: miter"/>
   </g>
   <g id="line2d_49">
    <path d="M 410.165156 765.774627 
L 410.165156 845.042932 
" clip-path="url(#p5e0ca7a627)" style="fill: none; stroke: #4c4c4c; stroke-width: 3"/>
   </g>
   <g id="line2d_50">
    <path d="M 410.165156 704.533897 
L 410.165156 614.926249 
" clip-path="url(#p5e0ca7a627)" style="fill: none; stroke: #4c4c4c; stroke-width: 3"/>
   </g>
   <g id="line2d_51">
    <path d="M 362.076469 845.042932 
L 458.253844 845.042932 
" clip-path="url(#p5e0ca7a627)" style="fill: none; stroke: #4c4c4c; stroke-width: 3; stroke-linecap: round"/>
   </g>
   <g id="line2d_52">
    <path d="M 362.076469 614.926249 
L 458.253844 614.926249 
" clip-path="url(#p5e0ca7a627)" style="fill: none; stroke: #4c4c4c; stroke-width: 3; stroke-linecap: round"/>
   </g>
   <g id="line2d_53">
    <path d="M 73.544344 750.663278 
L 265.899094 750.663278 
" clip-path="url(#p5e0ca7a627)" style="fill: none; stroke: #4c4c4c; stroke-width: 3"/>
   </g>
   <g id="line2d_54">
    <path d="M 313.987781 744.691724 
L 506.342531 744.691724 
" clip-path="url(#p5e0ca7a627)" style="fill: none; stroke: #4c4c4c; stroke-width: 3"/>
   </g>
   <g id="patch_19">
    <path d="M 49.5 960.737541 
L 49.5 538.468125 
" style="fill: none; stroke: #262626; stroke-width: 1.25; stroke-linejoin: miter; stroke-linecap: square"/>
   </g>
   <g id="patch_20">
    <path d="M 530.386875 960.737541 
L 530.386875 538.468125 
" style="fill: none; stroke: #262626; stroke-width: 1.25; stroke-linejoin: miter; stroke-linecap: square"/>
   </g>
   <g id="patch_21">
    <path d="M 49.5 960.737541 
L 530.386875 960.737541 
" style="fill: none; stroke: #262626; stroke-width: 1.25; stroke-linejoin: miter; stroke-linecap: square"/>
   </g>
   <g id="patch_22">
    <path d="M 49.5 538.468125 
L 530.386875 538.468125 
" style="fill: none; stroke: #262626; stroke-width: 1.25; stroke-linejoin: miter; stroke-linecap: square"/>
   </g>
   <g id="text_33">
    <!-- bmi for each stroke -->
    <g style="fill: #262626" transform="translate(238.926562 532.468125) scale(0.12 -0.12)">
     <use xlink:href="#ArialMT-62"/>
     <use xlink:href="#ArialMT-6d" x="55.615234"/>
     <use xlink:href="#ArialMT-69" x="138.916016"/>
     <use xlink:href="#ArialMT-20" x="161.132812"/>
     <use xlink:href="#ArialMT-66" x="188.916016"/>
     <use xlink:href="#ArialMT-6f" x="216.699219"/>
     <use xlink:href="#ArialMT-72" x="272.314453"/>
     <use xlink:href="#ArialMT-20" x="305.615234"/>
     <use xlink:href="#ArialMT-65" x="333.398438"/>
     <use xlink:href="#ArialMT-61" x="389.013672"/>
     <use xlink:href="#ArialMT-63" x="444.628906"/>
     <use xlink:href="#ArialMT-68" x="494.628906"/>
     <use xlink:href="#ArialMT-20" x="550.244141"/>
     <use xlink:href="#ArialMT-73" x="578.027344"/>
     <use xlink:href="#ArialMT-74" x="628.027344"/>
     <use xlink:href="#ArialMT-72" x="655.810547"/>
     <use xlink:href="#ArialMT-6f" x="689.111328"/>
     <use xlink:href="#ArialMT-6b" x="744.726562"/>
     <use xlink:href="#ArialMT-65" x="794.726562"/>
    </g>
   </g>
  </g>
  <g id="text_34">
   <!-- Box Plots without Outliers shown -->
   <g style="fill: #262626" transform="translate(430.789453 30.896719) scale(0.15 -0.15)">
    <defs>
     <path id="ArialMT-42" d="M 469 0 
L 469 4581 
L 2188 4581 
Q 2713 4581 3030 4442 
Q 3347 4303 3526 4014 
Q 3706 3725 3706 3409 
Q 3706 3116 3547 2856 
Q 3388 2597 3066 2438 
Q 3481 2316 3704 2022 
Q 3928 1728 3928 1328 
Q 3928 1006 3792 729 
Q 3656 453 3456 303 
Q 3256 153 2954 76 
Q 2653 0 2216 0 
L 469 0 
z
M 1075 2656 
L 2066 2656 
Q 2469 2656 2644 2709 
Q 2875 2778 2992 2937 
Q 3109 3097 3109 3338 
Q 3109 3566 3000 3739 
Q 2891 3913 2687 3977 
Q 2484 4041 1991 4041 
L 1075 4041 
L 1075 2656 
z
M 1075 541 
L 2216 541 
Q 2509 541 2628 563 
Q 2838 600 2978 687 
Q 3119 775 3209 942 
Q 3300 1109 3300 1328 
Q 3300 1584 3169 1773 
Q 3038 1963 2805 2039 
Q 2572 2116 2134 2116 
L 1075 2116 
L 1075 541 
z
" transform="scale(0.015625)"/>
     <path id="ArialMT-78" d="M 47 0 
L 1259 1725 
L 138 3319 
L 841 3319 
L 1350 2541 
Q 1494 2319 1581 2169 
Q 1719 2375 1834 2534 
L 2394 3319 
L 3066 3319 
L 1919 1756 
L 3153 0 
L 2463 0 
L 1781 1031 
L 1600 1309 
L 728 0 
L 47 0 
z
" transform="scale(0.015625)"/>
     <path id="ArialMT-50" d="M 494 0 
L 494 4581 
L 2222 4581 
Q 2678 4581 2919 4538 
Q 3256 4481 3484 4323 
Q 3713 4166 3852 3881 
Q 3991 3597 3991 3256 
Q 3991 2672 3619 2267 
Q 3247 1863 2275 1863 
L 1100 1863 
L 1100 0 
L 494 0 
z
M 1100 2403 
L 2284 2403 
Q 2872 2403 3119 2622 
Q 3366 2841 3366 3238 
Q 3366 3525 3220 3729 
Q 3075 3934 2838 4000 
Q 2684 4041 2272 4041 
L 1100 4041 
L 1100 2403 
z
" transform="scale(0.015625)"/>
     <path id="ArialMT-77" d="M 1034 0 
L 19 3319 
L 600 3319 
L 1128 1403 
L 1325 691 
Q 1338 744 1497 1375 
L 2025 3319 
L 2603 3319 
L 3100 1394 
L 3266 759 
L 3456 1400 
L 4025 3319 
L 4572 3319 
L 3534 0 
L 2950 0 
L 2422 1988 
L 2294 2553 
L 1622 0 
L 1034 0 
z
" transform="scale(0.015625)"/>
     <path id="ArialMT-4f" d="M 309 2231 
Q 309 3372 921 4017 
Q 1534 4663 2503 4663 
Q 3138 4663 3647 4359 
Q 4156 4056 4423 3514 
Q 4691 2972 4691 2284 
Q 4691 1588 4409 1038 
Q 4128 488 3612 205 
Q 3097 -78 2500 -78 
Q 1853 -78 1343 234 
Q 834 547 571 1087 
Q 309 1628 309 2231 
z
M 934 2222 
Q 934 1394 1379 917 
Q 1825 441 2497 441 
Q 3181 441 3623 922 
Q 4066 1403 4066 2288 
Q 4066 2847 3877 3264 
Q 3688 3681 3323 3911 
Q 2959 4141 2506 4141 
Q 1863 4141 1398 3698 
Q 934 3256 934 2222 
z
" transform="scale(0.015625)"/>
     <path id="ArialMT-6e" d="M 422 0 
L 422 3319 
L 928 3319 
L 928 2847 
Q 1294 3394 1984 3394 
Q 2284 3394 2536 3286 
Q 2788 3178 2913 3003 
Q 3038 2828 3088 2588 
Q 3119 2431 3119 2041 
L 3119 0 
L 2556 0 
L 2556 2019 
Q 2556 2363 2490 2533 
Q 2425 2703 2258 2804 
Q 2091 2906 1866 2906 
Q 1506 2906 1245 2678 
Q 984 2450 984 1813 
L 984 0 
L 422 0 
z
" transform="scale(0.015625)"/>
    </defs>
    <use xlink:href="#ArialMT-42"/>
    <use xlink:href="#ArialMT-6f" x="66.699219"/>
    <use xlink:href="#ArialMT-78" x="122.314453"/>
    <use xlink:href="#ArialMT-20" x="172.314453"/>
    <use xlink:href="#ArialMT-50" x="200.097656"/>
    <use xlink:href="#ArialMT-6c" x="266.796875"/>
    <use xlink:href="#ArialMT-6f" x="289.013672"/>
    <use xlink:href="#ArialMT-74" x="344.628906"/>
    <use xlink:href="#ArialMT-73" x="372.412109"/>
    <use xlink:href="#ArialMT-20" x="422.412109"/>
    <use xlink:href="#ArialMT-77" x="450.195312"/>
    <use xlink:href="#ArialMT-69" x="522.412109"/>
    <use xlink:href="#ArialMT-74" x="544.628906"/>
    <use xlink:href="#ArialMT-68" x="572.412109"/>
    <use xlink:href="#ArialMT-6f" x="628.027344"/>
    <use xlink:href="#ArialMT-75" x="683.642578"/>
    <use xlink:href="#ArialMT-74" x="739.257812"/>
    <use xlink:href="#ArialMT-20" x="767.041016"/>
    <use xlink:href="#ArialMT-4f" x="794.824219"/>
    <use xlink:href="#ArialMT-75" x="872.607422"/>
    <use xlink:href="#ArialMT-74" x="928.222656"/>
    <use xlink:href="#ArialMT-6c" x="956.005859"/>
    <use xlink:href="#ArialMT-69" x="978.222656"/>
    <use xlink:href="#ArialMT-65" x="1000.439453"/>
    <use xlink:href="#ArialMT-72" x="1056.054688"/>
    <use xlink:href="#ArialMT-73" x="1089.355469"/>
    <use xlink:href="#ArialMT-20" x="1139.355469"/>
    <use xlink:href="#ArialMT-73" x="1167.138672"/>
    <use xlink:href="#ArialMT-68" x="1217.138672"/>
    <use xlink:href="#ArialMT-6f" x="1272.753906"/>
    <use xlink:href="#ArialMT-77" x="1328.369141"/>
    <use xlink:href="#ArialMT-6e" x="1400.585938"/>
   </g>
  </g>
 </g>
 <defs>
  <clipPath id="p7bb5825f0e">
   <rect x="49.5" y="54.29625" width="480.886875" height="422.269416"/>
  </clipPath>
  <clipPath id="paaf568543b">
   <rect x="586.153125" y="54.29625" width="480.886875" height="422.269416"/>
  </clipPath>
  <clipPath id="p5e0ca7a627">
   <rect x="49.5" y="538.468125" width="480.886875" height="422.269416"/>
  </clipPath>
 </defs>
</svg>
